<mxfile host="app.diagrams.net" modified="2023-07-13T07:52:57.378Z" agent="Mozilla/5.0 (Windows NT 10.0; Win64; x64) AppleWebKit/537.36 (KHTML, like Gecko) Chrome/114.0.0.0 Safari/537.36 Edg/114.0.1823.79" version="21.3.7" etag="yJgu5yXKtlOjR0FzsYoH" type="github">
  <diagram name="Page-1" id="UJsEJ3mZ3b8zLKpSB9RQ">
    <mxGraphModel>
      <root>
        <mxCell id="0" />
        <mxCell id="1" parent="0" />
      </root>
    </mxGraphModel>
  </diagram>
</mxfile>
